<svg width="71" height="122" viewBox="0 0 71 122" fill="none" xmlns="http://www.w3.org/2000/svg">
<g clip-path="url(#clip0_34_685)">
<path d="M37.688 108H35.378L42.224 95.316L35.798 83.598H38.15L41.174 89.184L43.484 93.888L45.92 89.058L48.986 83.598H51.338L44.744 95.316L51.716 108H49.28L45.92 101.658L43.484 96.744L40.88 101.91L37.688 108Z" fill="white"/>
<path d="M5.166 22.602H10.752C15.288 22.602 16.422 20.67 16.422 15.504V12.858C16.422 7.692 15.582 5.592 10.752 5.592H5.166V22.602ZM10.752 24.618H5.166V36H2.94V3.576H10.752C16.044 3.576 18.522 5.256 18.522 12.648V15.462C18.522 22.518 16.044 24.618 10.752 24.618ZM38.8667 3.576V36H36.7667V19.83H25.4267V36H23.2427V3.576H25.4267V17.73H36.7667V3.576H38.8667Z" fill="white"/>
<path d="M23.564 61.576V93.958H21.128L9.914 66.448H9.83L10.124 76.612V93.958H7.898V61.576H10.124L21.632 89.38H21.716L21.338 77.83V61.576H23.564ZM31.6172 61.576V94H29.3912V61.576H31.6172Z" fill="white"/>
<path d="M34.706 46.886C34.706 39.2 38.108 37.478 45.374 37.478L57.092 37.478C64.526 37.478 67.76 39.074 67.76 46.886C67.76 54.698 64.526 56.294 57.05 56.294L45.416 56.294C38.108 56.294 34.706 54.572 34.706 46.886ZM65.828 46.886C65.828 39.788 62.594 39.578 56.966 39.578L45.5 39.578C40.292 39.578 36.638 39.788 36.638 46.886C36.638 53.984 40.166 54.194 45.5 54.194L56.966 54.194C62.468 54.194 65.828 53.984 65.828 46.886ZM67.424 61.8521L67.424 76.5101L65.492 76.5101L65.492 63.9521L53.312 63.9521L53.312 75.2501L51.338 75.2501L51.338 63.9521L37.058 63.9521L37.058 77.3501L35 77.3501L35 61.8521L67.424 61.8521Z" fill="white"/>
</g>
<defs>
<clipPath id="clip0_34_685">
<rect width="71" height="122" fill="white"/>
</clipPath>
</defs>
</svg>
